<svg xmlns="http://www.w3.org/2000/svg" width="1024" height="1024" viewBox="0 0 1024 1024">
  <defs>
    <radialGradient id="bodyGrad" cx="50%" cy="40%" r="60%">
      <stop offset="0%" stop-color="#8B5A2B"/>
      <stop offset="60%" stop-color="#5C3317"/>
      <stop offset="100%" stop-color="#3A1F0A"/>
    </radialGradient>
    <radialGradient id="bodyGrad2" cx="50%" cy="40%" r="60%">
      <stop offset="0%" stop-color="#A0673A"/>
      <stop offset="60%" stop-color="#6B3D1A"/>
      <stop offset="100%" stop-color="#3A1F0A"/>
    </radialGradient>
    <radialGradient id="bodyGrad3" cx="50%" cy="40%" r="60%">
      <stop offset="0%" stop-color="#C97D44"/>
      <stop offset="60%" stop-color="#82461F"/>
      <stop offset="100%" stop-color="#4A2810"/>
    </radialGradient>
    <linearGradient id="wingGrad" x1="0%" y1="0%" x2="0%" y2="100%">
      <stop offset="0%" stop-color="#D9A066" stop-opacity="0.85"/>
      <stop offset="100%" stop-color="#6B3D1A" stop-opacity="0.95"/>
    </linearGradient>
    <radialGradient id="eyeShine" cx="35%" cy="30%" r="70%">
      <stop offset="0%" stop-color="#FFFFFF"/>
      <stop offset="40%" stop-color="#FFF9C4"/>
      <stop offset="100%" stop-color="#FFC107"/>
    </radialGradient>
    <radialGradient id="stickerShade" cx="50%" cy="50%" r="50%">
      <stop offset="85%" stop-color="#FFFFFF" stop-opacity="0"/>
      <stop offset="100%" stop-color="#000000" stop-opacity="0.15"/>
    </radialGradient>
  </defs>

  <g id="stickerBase">
    <path d="M 512 90
             C 700 90, 880 200, 920 380
             C 960 540, 900 700, 760 820
             C 640 920, 480 950, 340 900
             C 180 840, 90 700, 100 540
             C 110 360, 220 200, 380 130
             C 420 110, 470 95, 512 90 Z"
          fill="#FFFFFF" stroke="#1A1A1A" stroke-width="14" stroke-linejoin="round"/>
    <path d="M 512 90
             C 700 90, 880 200, 920 380
             C 960 540, 900 700, 760 820
             C 640 920, 480 950, 340 900
             C 180 840, 90 700, 100 540
             C 110 360, 220 200, 380 130
             C 420 110, 470 95, 512 90 Z"
          fill="url(#stickerShade)"/>
  </g>

  <g id="roach2" transform="translate(280 680) rotate(-25) scale(0.55)">
    <g stroke="#1A1A1A" stroke-width="9" stroke-linecap="round" stroke-linejoin="round" fill="none">
      <path d="M -10 -20 Q -90 -80 -150 -130"/>
      <path d="M -10 0 Q -100 0 -170 30"/>
      <path d="M -10 20 Q -90 80 -150 130"/>
      <path d="M 10 -20 Q 90 -80 150 -130"/>
      <path d="M 10 0 Q 100 0 170 30"/>
      <path d="M 10 20 Q 90 80 150 130"/>
    </g>
    <ellipse cx="0" cy="0" rx="120" ry="80" fill="url(#bodyGrad2)" stroke="#1A1A1A" stroke-width="10"/>
    <path d="M -90 -10 Q 0 -60 90 -10 Q 0 70 -90 -10 Z" fill="url(#wingGrad)" stroke="#1A1A1A" stroke-width="7" opacity="0.9"/>
    <path d="M 0 -70 Q -20 0 0 70" stroke="#3A1F0A" stroke-width="6" fill="none" opacity="0.7"/>
    <ellipse cx="0" cy="-70" rx="55" ry="40" fill="url(#bodyGrad2)" stroke="#1A1A1A" stroke-width="10"/>
    <path d="M -40 -100 Q -90 -140 -130 -160" stroke="#1A1A1A" stroke-width="8" fill="none" stroke-linecap="round"/>
    <path d="M 40 -100 Q 90 -140 130 -160" stroke="#1A1A1A" stroke-width="8" fill="none" stroke-linecap="round"/>
    <circle cx="-18" cy="-80" r="14" fill="url(#eyeShine)" stroke="#1A1A1A" stroke-width="5"/>
    <circle cx="18" cy="-80" r="14" fill="url(#eyeShine)" stroke="#1A1A1A" stroke-width="5"/>
    <circle cx="-20" cy="-82" r="5" fill="#1A1A1A"/>
    <circle cx="16" cy="-82" r="5" fill="#1A1A1A"/>
  </g>

  <g id="roach3" transform="translate(740 660) rotate(28) scale(0.5)">
    <g stroke="#1A1A1A" stroke-width="9" stroke-linecap="round" stroke-linejoin="round" fill="none">
      <path d="M -10 -20 Q -90 -80 -150 -130"/>
      <path d="M -10 0 Q -100 0 -170 30"/>
      <path d="M -10 20 Q -90 80 -150 130"/>
      <path d="M 10 -20 Q 90 -80 150 -130"/>
      <path d="M 10 0 Q 100 0 170 30"/>
      <path d="M 10 20 Q 90 80 150 130"/>
    </g>
    <ellipse cx="0" cy="0" rx="120" ry="80" fill="url(#bodyGrad3)" stroke="#1A1A1A" stroke-width="10"/>
    <path d="M -90 -10 Q 0 -60 90 -10 Q 0 70 -90 -10 Z" fill="url(#wingGrad)" stroke="#1A1A1A" stroke-width="7" opacity="0.9"/>
    <path d="M 0 -70 Q 20 0 0 70" stroke="#3A1F0A" stroke-width="6" fill="none" opacity="0.7"/>
    <ellipse cx="0" cy="-70" rx="55" ry="40" fill="url(#bodyGrad3)" stroke="#1A1A1A" stroke-width="10"/>
    <path d="M -40 -100 Q -90 -140 -130 -160" stroke="#1A1A1A" stroke-width="8" fill="none" stroke-linecap="round"/>
    <path d="M 40 -100 Q 90 -140 130 -160" stroke="#1A1A1A" stroke-width="8" fill="none" stroke-linecap="round"/>
    <circle cx="-18" cy="-80" r="14" fill="url(#eyeShine)" stroke="#1A1A1A" stroke-width="5"/>
    <circle cx="18" cy="-80" r="14" fill="url(#eyeShine)" stroke="#1A1A1A" stroke-width="5"/>
    <circle cx="-16" cy="-82" r="5" fill="#1A1A1A"/>
    <circle cx="20" cy="-82" r="5" fill="#1A1A1A"/>
  </g>

  <g id="roach4" transform="translate(320 340) rotate(15) scale(0.45)">
    <g stroke="#1A1A1A" stroke-width="9" stroke-linecap="round" stroke-linejoin="round" fill="none">
      <path d="M -10 -20 Q -90 -80 -150 -130"/>
      <path d="M -10 0 Q -100 0 -170 30"/>
      <path d="M -10 20 Q -90 80 -150 130"/>
      <path d="M 10 -20 Q 90 -80 150 -130"/>
      <path d="M 10 0 Q 100 0 170 30"/>
      <path d="M 10 20 Q 90 80 150 130"/>
    </g>
    <ellipse cx="0" cy="0" rx="120" ry="80" fill="url(#bodyGrad)" stroke="#1A1A1A" stroke-width="10"/>
    <path d="M -90 -10 Q 0 -60 90 -10 Q 0 70 -90 -10 Z" fill="url(#wingGrad)" stroke="#1A1A1A" stroke-width="7" opacity="0.9"/>
    <ellipse cx="0" cy="-70" rx="55" ry="40" fill="url(#bodyGrad)" stroke="#1A1A1A" stroke-width="10"/>
    <path d="M -40 -100 Q -90 -140 -130 -160" stroke="#1A1A1A" stroke-width="8" fill="none" stroke-linecap="round"/>
    <path d="M 40 -100 Q 90 -140 130 -160" stroke="#1A1A1A" stroke-width="8" fill="none" stroke-linecap="round"/>
    <circle cx="-18" cy="-80" r="14" fill="url(#eyeShine)" stroke="#1A1A1A" stroke-width="5"/>
    <circle cx="18" cy="-80" r="14" fill="url(#eyeShine)" stroke="#1A1A1A" stroke-width="5"/>
    <circle cx="-18" cy="-78" r="5" fill="#1A1A1A"/>
    <circle cx="18" cy="-78" r="5" fill="#1A1A1A"/>
  </g>

  <g id="roach5" transform="translate(720 320) rotate(-18) scale(0.42)">
    <g stroke="#1A1A1A" stroke-width="9" stroke-linecap="round" stroke-linejoin="round" fill="none">
      <path d="M -10 -20 Q -90 -80 -150 -130"/>
      <path d="M -10 0 Q -100 0 -170 30"/>
      <path d="M -10 20 Q -90 80 -150 130"/>
      <path d="M 10 -20 Q 90 -80 150 -130"/>
      <path d="M 10 0 Q 100 0 170 30"/>
      <path d="M 10 20 Q 90 80 150 130"/>
    </g>
    <ellipse cx="0" cy="0" rx="120" ry="80" fill="url(#bodyGrad2)" stroke="#1A1A1A" stroke-width="10"/>
    <path d="M -90 -10 Q 0 -60 90 -10 Q 0 70 -90 -10 Z" fill="url(#wingGrad)" stroke="#1A1A1A" stroke-width="7" opacity="0.9"/>
    <ellipse cx="0" cy="-70" rx="55" ry="40" fill="url(#bodyGrad2)" stroke="#1A1A1A" stroke-width="10"/>
    <path d="M -40 -100 Q -90 -140 -130 -160" stroke="#1A1A1A" stroke-width="8" fill="none" stroke-linecap="round"/>
    <path d="M 40 -100 Q 90 -140 130 -160" stroke="#1A1A1A" stroke-width="8" fill="none" stroke-linecap="round"/>
    <circle cx="-18" cy="-80" r="14" fill="url(#eyeShine)" stroke="#1A1A1A" stroke-width="5"/>
    <circle cx="18" cy="-80" r="14" fill="url(#eyeShine)" stroke="#1A1A1A" stroke-width="5"/>
    <circle cx="-20" cy="-80" r="5" fill="#1A1A1A"/>
    <circle cx="16" cy="-80" r="5" fill="#1A1A1A"/>
  </g>

  <g id="roachMain" transform="translate(512 520) scale(1.05)">
    <g stroke="#1A1A1A" stroke-width="14" stroke-linecap="round" stroke-linejoin="round" fill="none">
      <path d="M -50 -40 Q -160 -110 -240 -180"/>
      <path d="M -50 -10 Q -180 -10 -270 30"/>
      <path d="M -50 40 Q -160 110 -240 180"/>
      <path d="M 50 -40 Q 160 -110 240 -180"/>
      <path d="M 50 -10 Q 180 -10 270 30"/>
      <path d="M 50 40 Q 160 110 240 180"/>
      <circle cx="-240" cy="-180" r="9" fill="#1A1A1A"/>
      <circle cx="-270" cy="30" r="9" fill="#1A1A1A"/>
      <circle cx="-240" cy="180" r="9" fill="#1A1A1A"/>
      <circle cx="240" cy="-180" r="9" fill="#1A1A1A"/>
      <circle cx="270" cy="30" r="9" fill="#1A1A1A"/>
      <circle cx="240" cy="180" r="9" fill="#1A1A1A"/>
    </g>

    <ellipse cx="0" cy="20" rx="200" ry="140" fill="url(#bodyGrad)" stroke="#1A1A1A" stroke-width="14"/>

    <path d="M -160 0 Q 0 -90 160 0 Q 80 140 0 130 Q -80 140 -160 0 Z"
          fill="url(#wingGrad)" stroke="#1A1A1A" stroke-width="10" opacity="0.95"/>
    <path d="M 0 -70 Q -30 30 0 130" stroke="#3A1F0A" stroke-width="8" fill="none" opacity="0.8"/>
    <path d="M -80 -40 Q -60 30 -80 100" stroke="#3A1F0A" stroke-width="5" fill="none" opacity="0.6"/>
    <path d="M 80 -40 Q 60 30 80 100" stroke="#3A1F0A" stroke-width="5" fill="none" opacity="0.6"/>

    <ellipse cx="0" cy="-110" rx="95" ry="70" fill="url(#bodyGrad)" stroke="#1A1A1A" stroke-width="14"/>
    <path d="M -50 -160 L -55 -130" stroke="#1A1A1A" stroke-width="8" stroke-linecap="round"/>
    <path d="M 50 -160 L 55 -130" stroke="#1A1A1A" stroke-width="8" stroke-linecap="round"/>

    <path d="M -70 -160 Q -130 -220 -180 -260" stroke="#1A1A1A" stroke-width="12" fill="none" stroke-linecap="round"/>
    <path d="M 70 -160 Q 130 -220 180 -260" stroke="#1A1A1A" stroke-width="12" fill="none" stroke-linecap="round"/>
    <circle cx="-180" cy="-260" r="10" fill="#1A1A1A"/>
    <circle cx="180" cy="-260" r="10" fill="#1A1A1A"/>

    <ellipse cx="-35" cy="-125" rx="26" ry="22" fill="url(#eyeShine)" stroke="#1A1A1A" stroke-width="6"/>
    <ellipse cx="35" cy="-125" rx="26" ry="22" fill="url(#eyeShine)" stroke="#1A1A1A" stroke-width="6"/>
    <circle cx="-32" cy="-122" r="10" fill="#1A1A1A"/>
    <circle cx="38" cy="-122" r="10" fill="#1A1A1A"/>
    <circle cx="-28" cy="-126" r="3.5" fill="#FFFFFF"/>
    <circle cx="42" cy="-126" r="3.5" fill="#FFFFFF"/>

    <path d="M -25 -85 Q 0 -70 25 -85" stroke="#1A1A1A" stroke-width="6" fill="none" stroke-linecap="round"/>

    <ellipse cx="-70" cy="-30" rx="22" ry="14" fill="#A0673A" opacity="0.5"/>
    <ellipse cx="70" cy="80" rx="18" ry="12" fill="#A0673A" opacity="0.5"/>
  </g>
</svg>